<svg width="363" height="365" viewBox="0 0 363 365" fill="none" xmlns="http://www.w3.org/2000/svg">
<path d="M335.765 180.239C335.765 180.239 363.595 163.93 347.286 136.099L303.793 61.8835C287.484 34.0527 259.653 50.3622 259.653 50.3622L166.884 104.728L174.705 118.074M42.5726 135.365L35.0829 137.201C35.0829 137.201 3.7534 144.883 11.4355 176.213L31.921 259.758C34.4908 270.239 39.7068 276.353 45.5111 279.851M202.495 49.8699L195.5 31.6695C195.5 31.6695 185.584 1.21461 155.51 12.8815L75.3128 43.9931C45.2388 55.6599 58.9878 84.1463 58.9878 84.1463L85.1108 163.503M247.883 334.699C255.288 335.261 263.865 332.975 272.303 324.168L331.817 262.059C354.135 238.767 330.844 216.45 330.844 216.45L253.206 142.058L240.206 155.625M145.083 199.053L103.539 187.921L75.7088 291.783C75.7088 291.783 67.36 322.942 98.5185 331.291L181.608 353.554C212.766 361.903 221.115 330.745 221.115 330.745L248.945 226.883L207.4 215.751M145.083 199.053L207.4 215.751M145.083 199.053L139.517 219.826M145.083 199.053L153.432 167.895C161.781 136.736 224.098 153.434 215.749 184.593L207.4 215.751M207.4 215.751L201.834 236.523" stroke="#DBDEEC" stroke-opacity="0.33" stroke-width="20" stroke-linecap="round" stroke-linejoin="round"/>
</svg>
